{
  "accessors": [
    {
      "bufferView": 2,
      "componentType": 5126,
      "count": 77,
      "max": [
        1.334312081336975,
        1.334312081336975,
        1.3624913692474365
      ],
      "min": [
        -1.334312081336975,
        -1.334312081336975,
        -0.19005203247070313
      ],
      "type": "VEC3"
    },
    {
      "bufferView": 2,
      "byteOffset": 924,
      "componentType": 5126,
      "count": 77,
      "max": [
        0.6603233218193054,
        0.660323441028595,
        1.0
      ],
      "min": [
        -0.6603233218193054,
        -0.660323441028595,
        -0.7284803986549377
      ],
      "type": "VEC3"
    },
    {
      "bufferView": 1,
      "componentType": 5126,
      "count": 77,
      "max": [
        0.875,
        0.75
      ],
      "min": [
        0.625,
        0.5
      ],
      "type": "VEC2"
    },
    {
      "bufferView": 0,
      "componentType": 5125,
      "count": 96,
      "type": "SCALAR"
    }
  ],
  "asset": {
    "extras": {
      "author": "EliasCoptere (https://sketchfab.com/EliasCoptere)",
      "license": "CC-BY-4.0 (http://creativecommons.org/licenses/by/4.0/)",
      "source": "https://sketchfab.com/3d-models/chaos-emerald-sonic-the-hedgehog-c83c3860e22c42e2a189ce5b03d80a4e",
      "title": "Chaos Emerald - Sonic The Hedgehog"
    },
    "generator": "Sketchfab-15.32.0",
    "version": "2.0"
  },
  "bufferViews": [
    {
      "buffer": 0,
      "byteLength": 384,
      "name": "floatBufferViews",
      "target": 34963
    },
    {
      "buffer": 0,
      "byteLength": 616,
      "byteOffset": 384,
      "byteStride": 8,
      "name": "floatBufferViews",
      "target": 34962
    },
    {
      "buffer": 0,
      "byteLength": 1848,
      "byteOffset": 1000,
      "byteStride": 12,
      "name": "floatBufferViews",
      "target": 34962
    }
  ],
  "buffers": [
    {
      "byteLength": 2848,
      "uri": "scene.bin"
    }
  ],
  "extensionsUsed": [
    "KHR_materials_clearcoat"
  ],
  "materials": [
    {
      "doubleSided": true,
      "extensions": {
        "KHR_materials_clearcoat": {
          "clearcoatFactor": 1.0,
          "clearcoatRoughnessFactor": 0.0
        }
      },
      "name": "Material.012",
      "pbrMetallicRoughness": {
        "baseColorFactor": [
          0.024302,
          0.8,
          0.0,
          1.0
        ],
        "metallicFactor": 0.9005741731784325,
        "roughnessFactor": 0.0
      }
    }
  ],
  "meshes": [
    {
      "name": "Chaos Emerald_Material.012_0",
      "primitives": [
        {
          "attributes": {
            "NORMAL": 1,
            "POSITION": 0,
            "TEXCOORD_0": 2
          },
          "indices": 3,
          "material": 0,
          "mode": 4
        }
      ]
    }
  ],
  "nodes": [
    {
      "children": [
        1
      ],
      "matrix": [
        1.0,
        0.0,
        0.0,
        0.0,
        0.0,
        2.220446049250313e-16,
        -1.0,
        0.0,
        0.0,
        1.0,
        2.220446049250313e-16,
        0.0,
        0.0,
        0.0,
        0.0,
        1.0
      ],
      "name": "Sketchfab_model"
    },
    {
      "children": [
        2
      ],
      "matrix": [
        0.009999999776482582,
        0.0,
        0.0,
        0.0,
        0.0,
        0.0,
        0.009999999776482582,
        0.0,
        0.0,
        -0.009999999776482582,
        0.0,
        0.0,
        0.0,
        0.0,
        0.0,
        1.0
      ],
      "name": "9d04fbfc06e44434b2a78f1f0c4ac9d2.fbx"
    },
    {
      "children": [
        3
      ],
      "name": "RootNode"
    },
    {
      "children": [
        4
      ],
      "matrix": [
        100.0,
        0.0,
        0.0,
        0.0,
        0.0,
        -1.629206793918314e-05,
        -99.99999999999868,
        0.0,
        0.0,
        99.99999999999868,
        -1.629206793918314e-05,
        0.0,
        0.0,
        0.0,
        0.0,
        1.0
      ],
      "name": "Chaos Emerald"
    },
    {
      "mesh": 0,
      "name": "Chaos Emerald_Material.012_0"
    }
  ],
  "scene": 0,
  "scenes": [
    {
      "name": "Sketchfab_Scene",
      "nodes": [
        0
      ]
    }
  ]
}
