{
  "accessors": [
    {
      "bufferView": 1,
      "componentType": 5126,
      "count": 576,
      "max": [
        12.0,
        -37.0,
        16.0
      ],
      "min": [
        -13.581999778747559,
        -136.0,
        -86.0
      ],
      "type": "VEC3"
    },
    {
      "bufferView": 1,
      "byteOffset": 6912,
      "componentType": 5126,
      "count": 576,
      "max": [
        0.9999986290931702,
        0.9999648928642273,
        1.0
      ],
      "min": [
        -0.9999986290931702,
        -0.9999648928642273,
        -1.0
      ],
      "type": "VEC3"
    },
    {
      "bufferView": 0,
      "componentType": 5125,
      "count": 3456,
      "type": "SCALAR"
    }
  ],
  "asset": {
    "extras": {
      "author": "A Burnt Piece Of Chicken (https://sketchfab.com/That_guy_in_your_walls)",
      "license": "CC-BY-4.0 (http://creativecommons.org/licenses/by/4.0/)",
      "source": "https://sketchfab.com/3d-models/sonic-ring-e4929fb428bb4c128f820b0bcd08848c",
      "title": "Sonic Ring"
    },
    "generator": "Sketchfab-16.59.0",
    "version": "2.0"
  },
  "bufferViews": [
    {
      "buffer": 0,
      "byteLength": 13824,
      "name": "floatBufferViews",
      "target": 34963
    },
    {
      "buffer": 0,
      "byteLength": 13824,
      "byteOffset": 13824,
      "byteStride": 12,
      "name": "floatBufferViews",
      "target": 34962
    }
  ],
  "buffers": [
    {
      "byteLength": 27648,
      "uri": "scene.bin"
    }
  ],
  "extensionsUsed": [
    "KHR_materials_clearcoat"
  ],
  "materials": [
    {
      "doubleSided": true,
      "extensions": {
        "KHR_materials_clearcoat": {
          "clearcoatFactor": 1.0,
          "clearcoatRoughnessFactor": 0.04
        }
      },
      "name": "color_16768282",
      "pbrMetallicRoughness": {
        "baseColorFactor": [
          0.979986380953846,
          0.7959400096146162,
          0.006000593761883484,
          1.0
        ],
        "metallicFactor": 0.0
      }
    }
  ],
  "meshes": [
    {
      "name": "Object_0",
      "primitives": [
        {
          "attributes": {
            "NORMAL": 1,
            "POSITION": 0
          },
          "indices": 2,
          "material": 0,
          "mode": 4
        }
      ]
    }
  ],
  "nodes": [
    {
      "children": [
        1
      ],
      "matrix": [
        -2.220446049250313e-16,
        -5.053215392444312e-16,
        1.0,
        0.0,
        -1.0,
        2.8327693431939995e-16,
        -2.2204460492503123e-16,
        0.0,
        -2.832769343193999e-16,
        -1.0,
        -5.053215392444312e-16,
        0.0,
        0.0,
        0.0,
        0.0,
        1.0
      ],
      "name": "Sketchfab_model"
    },
    {
      "children": [
        2
      ],
      "name": "tinker.obj.cleaner.materialmerger.gles"
    },
    {
      "mesh": 0,
      "name": "Object_2"
    }
  ],
  "scene": 0,
  "scenes": [
    {
      "name": "Sketchfab_Scene",
      "nodes": [
        0
      ]
    }
  ]
}
