{
  "accessors": [
    {
      "bufferView": 2,
      "componentType": 5126,
      "count": 3626,
      "max": [
        168.7359161376953,
        59.42274475097656,
        123.79786682128906
      ],
      "min": [
        27.069318771362305,
        -108.34195709228516,
        -131.64901733398438
      ],
      "type": "VEC3"
    },
    {
      "bufferView": 2,
      "byteOffset": 43512,
      "componentType": 5126,
      "count": 3626,
      "max": [
        0.9995972514152527,
        0.9991022944450378,
        0.9995972514152527
      ],
      "min": [
        -0.9993805885314941,
        -0.999721109867096,
        -0.9997521042823792
      ],
      "type": "VEC3"
    },
    {
      "bufferView": 3,
      "componentType": 5126,
      "count": 3626,
      "max": [
        0.9990265965461731,
        0.9998633861541748,
        0.9982997179031372,
        1.0
      ],
      "min": [
        -0.9993423819541931,
        -0.9998632073402405,
        -0.9999247193336487,
        -1.0
      ],
      "type": "VEC4"
    },
    {
      "bufferView": 1,
      "componentType": 5126,
      "count": 3626,
      "max": [
        0.9960939884185791,
        0.9961000084877014
      ],
      "min": [
        0.003907000180333853,
        0.003913000226020813
      ],
      "type": "VEC2"
    },
    {
      "bufferView": 0,
      "componentType": 5125,
      "count": 17796,
      "type": "SCALAR"
    },
    {
      "bufferView": 2,
      "byteOffset": 87024,
      "componentType": 5126,
      "count": 2386,
      "max": [
        162.36415100097656,
        222.0436553955078,
        102.65681457519531
      ],
      "min": [
        -38.945556640625,
        18.589282989501953,
        -105.2623062133789
      ],
      "type": "VEC3"
    },
    {
      "bufferView": 2,
      "byteOffset": 115656,
      "componentType": 5126,
      "count": 2386,
      "max": [
        0.9995972514152527,
        0.9991949796676636,
        0.9998760223388672
      ],
      "min": [
        -0.9968836307525635,
        -0.9894610643386841,
        -0.9987622499465942
      ],
      "type": "VEC3"
    },
    {
      "bufferView": 3,
      "byteOffset": 58016,
      "componentType": 5126,
      "count": 2386,
      "max": [
        0.9978351593017578,
        0.9987639784812927,
        0.9985260367393494,
        1.0
      ],
      "min": [
        -0.9996033310890198,
        -0.9996600151062012,
        -0.9952927231788635,
        -1.0
      ],
      "type": "VEC4"
    },
    {
      "bufferView": 1,
      "byteOffset": 29008,
      "componentType": 5126,
      "count": 2386,
      "max": [
        0.9960939884185791,
        0.9961000084877014
      ],
      "min": [
        0.003907000180333853,
        0.003913000226020813
      ],
      "type": "VEC2"
    },
    {
      "bufferView": 0,
      "byteOffset": 71184,
      "componentType": 5125,
      "count": 11886,
      "type": "SCALAR"
    },
    {
      "bufferView": 2,
      "byteOffset": 144288,
      "componentType": 5126,
      "count": 11551,
      "max": [
        171.582275390625,
        147.85189819335938,
        129.90367126464844
      ],
      "min": [
        -161.36109924316406,
        -148.3379364013672,
        -127.39929962158203
      ],
      "type": "VEC3"
    },
    {
      "bufferView": 2,
      "byteOffset": 282900,
      "componentType": 5126,
      "count": 11551,
      "max": [
        0.9999690055847168,
        0.9995972514152527,
        0.9998450875282288
      ],
      "min": [
        -0.9999380111694336,
        -0.9999690055847168,
        -0.9998450875282288
      ],
      "type": "VEC3"
    },
    {
      "bufferView": 3,
      "byteOffset": 96192,
      "componentType": 5126,
      "count": 11551,
      "max": [
        0.999866783618927,
        0.9999504685401917,
        0.9999999403953552,
        1.0
      ],
      "min": [
        -0.9998445510864258,
        -0.9998700022697449,
        -0.9999131560325623,
        -1.0
      ],
      "type": "VEC4"
    },
    {
      "bufferView": 1,
      "byteOffset": 48096,
      "componentType": 5126,
      "count": 11551,
      "max": [
        0.9960939884185791,
        0.9961000084877014
      ],
      "min": [
        0.003907000180333853,
        0.003913000226020813
      ],
      "type": "VEC2"
    },
    {
      "bufferView": 0,
      "byteOffset": 118728,
      "componentType": 5125,
      "count": 57414,
      "type": "SCALAR"
    },
    {
      "bufferView": 2,
      "byteOffset": 421512,
      "componentType": 5126,
      "count": 410,
      "max": [
        156.37722778320313,
        -30.55689239501953,
        12.054705619812012
      ],
      "min": [
        133.64041137695313,
        -54.65180969238281,
        -12.051523208618164
      ],
      "type": "VEC3"
    },
    {
      "bufferView": 2,
      "byteOffset": 426432,
      "componentType": 5126,
      "count": 410,
      "max": [
        0.9920337200164795,
        0.9965152740478516,
        0.9968836307525635
      ],
      "min": [
        -0.9987622499465942,
        -0.9977754354476929,
        -0.9967914819717407
      ],
      "type": "VEC3"
    },
    {
      "bufferView": 3,
      "byteOffset": 281008,
      "componentType": 5126,
      "count": 410,
      "max": [
        0.9759430289268494,
        0.7077925205230713,
        0.999945878982544,
        1.0
      ],
      "min": [
        -0.9997923374176025,
        -0.7220519185066223,
        -0.513342559337616,
        -1.0
      ],
      "type": "VEC4"
    },
    {
      "bufferView": 1,
      "byteOffset": 140504,
      "componentType": 5126,
      "count": 410,
      "max": [
        0.9919589757919312,
        0.9755920171737671
      ],
      "min": [
        0.019440000876784325,
        0.013067999854683876
      ],
      "type": "VEC2"
    },
    {
      "bufferView": 0,
      "byteOffset": 348384,
      "componentType": 5125,
      "count": 2448,
      "type": "SCALAR"
    },
    {
      "bufferView": 2,
      "byteOffset": 431352,
      "componentType": 5126,
      "count": 11924,
      "max": [
        161.08529663085938,
        176.34933471679688,
        128.07020568847656
      ],
      "min": [
        -158.58265686035156,
        -148.80194091796875,
        -120.45602416992188
      ],
      "type": "VEC3"
    },
    {
      "bufferView": 2,
      "byteOffset": 574440,
      "componentType": 5126,
      "count": 11924,
      "max": [
        0.9998450875282288,
        0.9999380111694336,
        0.9999690055847168
      ],
      "min": [
        -0.9998450875282288,
        -0.9997521042823792,
        -0.9998450875282288
      ],
      "type": "VEC3"
    },
    {
      "bufferView": 1,
      "byteOffset": 143784,
      "componentType": 5126,
      "count": 11924,
      "max": [
        0.9938510060310364,
        0.9975500106811523
      ],
      "min": [
        0.003220000071451068,
        0.0019450000254437327
      ],
      "type": "VEC2"
    },
    {
      "bufferView": 0,
      "byteOffset": 358176,
      "componentType": 5125,
      "count": 57168,
      "type": "SCALAR"
    }
  ],
  "asset": {
    "extras": {
      "author": "DJ_Nugget (https://sketchfab.com/DJ_Nugget)",
      "license": "CC-BY-4.0 (http://creativecommons.org/licenses/by/4.0/)",
      "source": "https://sketchfab.com/3d-models/doom-eternal-cacodemon-bf372183098c4d1089f70ae0725c1186",
      "title": "DOOM eternal cacodemon"
    },
    "generator": "Sketchfab-15.49.0",
    "version": "2.0"
  },
  "bufferViews": [
    {
      "buffer": 0,
      "byteLength": 586848,
      "name": "floatBufferViews",
      "target": 34963
    },
    {
      "buffer": 0,
      "byteLength": 239176,
      "byteOffset": 586848,
      "byteStride": 8,
      "name": "floatBufferViews",
      "target": 34962
    },
    {
      "buffer": 0,
      "byteLength": 717528,
      "byteOffset": 826024,
      "byteStride": 12,
      "name": "floatBufferViews",
      "target": 34962
    },
    {
      "buffer": 0,
      "byteLength": 287568,
      "byteOffset": 1543552,
      "byteStride": 16,
      "name": "floatBufferViews",
      "target": 34962
    }
  ],
  "buffers": [
    {
      "byteLength": 1831120,
      "uri": "scene.bin"
    }
  ],
  "extensionsRequired": [
    "KHR_materials_pbrSpecularGlossiness"
  ],
  "extensionsUsed": [
    "KHR_materials_pbrSpecularGlossiness",
    "KHR_materials_emissive_strength"
  ],
  "images": [
    {
      "uri": "textures/cacodemon_armor_diffuse.png"
    },
    {
      "uri": "textures/cacodemon_armor_specularGlossiness.png"
    },
    {
      "uri": "textures/cacodemon_armor_normal.png"
    },
    {
      "uri": "textures/cacodemon_arms_diffuse.png"
    },
    {
      "uri": "textures/cacodemon_arms_specularGlossiness.png"
    },
    {
      "uri": "textures/cacodemon_arms_normal.png"
    },
    {
      "uri": "textures/cacodemon_body_diffuse.png"
    },
    {
      "uri": "textures/cacodemon_body_specularGlossiness.png"
    },
    {
      "uri": "textures/cacodemon_body_normal.png"
    },
    {
      "uri": "textures/cacodemon_eye_diffuse.png"
    },
    {
      "uri": "textures/cacodemon_eye_normal.png"
    }
  ],
  "materials": [
    {
      "doubleSided": true,
      "extensions": {
        "KHR_materials_pbrSpecularGlossiness": {
          "diffuseFactor": [
            1.0,
            1.0,
            1.0,
            1.0
          ],
          "diffuseTexture": {
            "index": 0
          },
          "glossinessFactor": 1.0,
          "specularFactor": [
            0.3,
            0.3,
            0.3
          ],
          "specularGlossinessTexture": {
            "index": 1
          }
        }
      },
      "name": "cacodemon_armor",
      "normalTexture": {
        "index": 2
      }
    },
    {
      "doubleSided": true,
      "extensions": {
        "KHR_materials_pbrSpecularGlossiness": {
          "diffuseFactor": [
            1.0,
            1.0,
            1.0,
            1.0
          ],
          "diffuseTexture": {
            "index": 3
          },
          "glossinessFactor": 1.0,
          "specularFactor": [
            0.3,
            0.3,
            0.3
          ],
          "specularGlossinessTexture": {
            "index": 4
          }
        }
      },
      "name": "cacodemon_arms",
      "normalTexture": {
        "index": 5
      }
    },
    {
      "doubleSided": true,
      "extensions": {
        "KHR_materials_pbrSpecularGlossiness": {
          "diffuseFactor": [
            1.0,
            1.0,
            1.0,
            1.0
          ],
          "diffuseTexture": {
            "index": 6
          },
          "glossinessFactor": 1.0,
          "specularFactor": [
            0.3,
            0.3,
            0.3
          ],
          "specularGlossinessTexture": {
            "index": 7
          }
        }
      },
      "name": "cacodemon_body",
      "normalTexture": {
        "index": 8
      }
    },
    {
      "doubleSided": true,
      "emissiveFactor": [
        1.0,
        1.0,
        1.0
      ],
      "emissiveTexture": {
        "index": 9
      },
      "extensions": {
        "KHR_materials_emissive_strength": {
          "emissiveStrength": 3.762229337995918
        },
        "KHR_materials_pbrSpecularGlossiness": {
          "diffuseFactor": [
            1.0,
            1.0,
            1.0,
            1.0
          ],
          "diffuseTexture": {
            "index": 9
          },
          "glossinessFactor": 0.4,
          "specularFactor": [
            0.0,
            0.0,
            0.0
          ]
        }
      },
      "name": "cacodemon_eye",
      "normalTexture": {
        "index": 10
      }
    },
    {
      "alphaMode": "BLEND",
      "doubleSided": true,
      "extensions": {
        "KHR_materials_pbrSpecularGlossiness": {
          "diffuseFactor": [
            1.0,
            1.0,
            1.0,
            0.0
          ],
          "glossinessFactor": 0.4,
          "specularFactor": [
            0.0,
            0.0,
            0.0
          ]
        }
      },
      "name": "cacodemon_wounds"
    }
  ],
  "meshes": [
    {
      "name": "Object_0",
      "primitives": [
        {
          "attributes": {
            "NORMAL": 1,
            "POSITION": 0,
            "TANGENT": 2,
            "TEXCOORD_0": 3
          },
          "indices": 4,
          "material": 0,
          "mode": 4
        }
      ]
    },
    {
      "name": "Object_1",
      "primitives": [
        {
          "attributes": {
            "NORMAL": 6,
            "POSITION": 5,
            "TANGENT": 7,
            "TEXCOORD_0": 8
          },
          "indices": 9,
          "material": 1,
          "mode": 4
        }
      ]
    },
    {
      "name": "Object_2",
      "primitives": [
        {
          "attributes": {
            "NORMAL": 11,
            "POSITION": 10,
            "TANGENT": 12,
            "TEXCOORD_0": 13
          },
          "indices": 14,
          "material": 2,
          "mode": 4
        }
      ]
    },
    {
      "name": "Object_3",
      "primitives": [
        {
          "attributes": {
            "NORMAL": 16,
            "POSITION": 15,
            "TANGENT": 17,
            "TEXCOORD_0": 18
          },
          "indices": 19,
          "material": 3,
          "mode": 4
        }
      ]
    },
    {
      "name": "Object_4",
      "primitives": [
        {
          "attributes": {
            "NORMAL": 21,
            "POSITION": 20,
            "TEXCOORD_0": 22
          },
          "indices": 23,
          "material": 4,
          "mode": 4
        }
      ]
    }
  ],
  "nodes": [
    {
      "children": [
        1
      ],
      "matrix": [
        1.0,
        0.0,
        0.0,
        0.0,
        0.0,
        -1.0,
        -4.440892098500626e-16,
        0.0,
        0.0,
        4.440892098500626e-16,
        -1.0,
        0.0,
        0.0,
        0.0,
        0.0,
        1.0
      ],
      "name": "Sketchfab_model"
    },
    {
      "children": [
        2,
        3,
        4,
        5,
        6
      ],
      "name": "cacodemon_LOD0.obj.cleaner.materialmerger.gles"
    },
    {
      "mesh": 0,
      "name": "Object_2"
    },
    {
      "mesh": 1,
      "name": "Object_3"
    },
    {
      "mesh": 2,
      "name": "Object_4"
    },
    {
      "mesh": 3,
      "name": "Object_5"
    },
    {
      "mesh": 4,
      "name": "Object_6"
    }
  ],
  "samplers": [
    {
      "magFilter": 9729,
      "minFilter": 9987,
      "wrapS": 10497,
      "wrapT": 10497
    }
  ],
  "scene": 0,
  "scenes": [
    {
      "name": "Sketchfab_Scene",
      "nodes": [
        0
      ]
    }
  ],
  "textures": [
    {
      "sampler": 0,
      "source": 0
    },
    {
      "sampler": 0,
      "source": 1
    },
    {
      "sampler": 0,
      "source": 2
    },
    {
      "sampler": 0,
      "source": 3
    },
    {
      "sampler": 0,
      "source": 4
    },
    {
      "sampler": 0,
      "source": 5
    },
    {
      "sampler": 0,
      "source": 6
    },
    {
      "sampler": 0,
      "source": 7
    },
    {
      "sampler": 0,
      "source": 8
    },
    {
      "sampler": 0,
      "source": 9
    },
    {
      "sampler": 0,
      "source": 10
    }
  ]
}
